<svg xmlns="http://www.w3.org/2000/svg" viewBox="0 0 74.06 20.11"><defs><linearGradient id="b" x1="-50.49" y1="330.76" x2="-49.49" y2="330.76" gradientTransform="matrix(33.44 0 0 -33.44 1728.54 11077.86)" gradientUnits="userSpaceOnUse"><stop offset="0" stop-color="#fedecb"/><stop offset=".19" stop-color="#fedecb"/><stop offset=".29" stop-color="#f7ddcb"/><stop offset=".43" stop-color="#e3dac9"/><stop offset=".59" stop-color="#c3d6c7"/><stop offset=".78" stop-color="#96cfc4"/><stop offset=".89" stop-color="#79cbc2"/><stop offset="1" stop-color="#79cbc2"/></linearGradient><clipPath id="a"><path fill="none" d="M40.53 17.39h33.44v2.72H40.53z"/></clipPath></defs><g data-name="Слой 2"><g data-name="Слой 1"><path d="M23.46.34a10.14 10.14 0 017.22 2.86 9.91 9.91 0 012.17 3.15 9.53 9.53 0 01.78 3.87 9.49 9.49 0 01-.78 3.87 9.82 9.82 0 01-5.4 5.24 10 10 0 01-4 .78h-7.56V.34zM26 15.9a5.51 5.51 0 001.92-1.31 6.2 6.2 0 001.23-2 6.36 6.36 0 00.44-2.4 6.46 6.46 0 00-.44-2.42 6.1 6.1 0 00-1.23-1.95A5.87 5.87 0 0026 4.51 6.72 6.72 0 0023.46 4h-3.53v12.4h3.53a6 6 0 002.54-.5M6 0a6 6 0 106 6 6 6 0 00-6-6m0 8.52A2.48 2.48 0 118.52 6 2.48 2.48 0 016 8.52m35.44-3.88v2.53h-.78V1.61h.78v2.36H42l1.87-2.36h.94l-2.14 2.63 2.22 2.93h-.93l-1.94-2.53h-.58zm7.64-2.35h-2v1c-.09 2.41-.47 3.92-1.61 3.92h-.23V6.5h.11c.74 0 .93-1.58 1-3.48V1.61h3.49v5.56h-.79zm3.04 4.88h-.78V1.61h.78v4.41l2.99-4.41h.78v5.56h-.78V2.76l-2.99 4.41zm6.02-4.84v4.84h-.78V1.61h1.31l1.42 4.63 1.42-4.63h1.31v5.56h-.78V2.33L60.5 7.17h-.82l-1.54-4.84zm8.42-.72l2.09 5.56h-.84L67.37 6h-2.55l-.43 1.2h-.8l2.06-5.56zm.57 3.69l-1-2.9-1 2.9zm1.01-3.01v-.68h4.4v.68h-1.81v4.88h-.78V2.29h-1.81zM40.53 12.61a2.62 2.62 0 115.21 0 2.62 2.62 0 11-5.21 0m4.41 0c0-1.44-.79-2.22-1.81-2.22s-1.8.78-1.8 2.22.79 2.22 1.8 2.22 1.81-.79 1.81-2.22m6.41 2.78h-.78v-2.52h-2.92v2.52h-.78V9.83h.78v2.36h2.92V9.83h.78v5.56zm4.81-4.88h-2v1c-.09 2.41-.47 3.92-1.61 3.92h-.23v-.68h.11c.74 0 .93-1.58 1-3.48v-1.4H57v5.56h-.79zm4.53-.68l2.09 5.56h-.84l-.44-1.21H59l-.43 1.21h-.8l2.06-5.56zm.56 3.69l-1-2.9-1 2.9zm3.08 1.87h-.78V9.83h.78v4.41l3-4.41h.78v5.56h-.78V11zm1.51-5.87c-.88 0-1.31-.39-1.39-.92H65c0 .29.33.46.81.46s.76-.18.82-.46h.59c-.06.53-.51.92-1.42.92m8.26 5.87h-.78v-2.52h-2.92v2.52h-.78V9.83h.78v2.36h2.92V9.83h.78v5.56z" fill="#231f20"/><g clip-path="url(#a)"><path fill="url(#b)" d="M40.53 17.39h33.44v2.72H40.53z"/></g></g></g></svg>