<svg xmlns="http://www.w3.org/2000/svg" viewBox="0 0 90.84 20.11"><defs><linearGradient id="Безымянный_градиент_4" x1="-50.18" y1="166.94" x2="-49.18" y2="166.94" gradientTransform="matrix(50.31 0 0 -50.31 2564.67 8417.06)" gradientUnits="userSpaceOnUse"><stop offset="0" stop-color="#cfe9dc"/><stop offset=".21" stop-color="#cfe9dc"/><stop offset=".37" stop-color="#c7e3dd"/><stop offset=".61" stop-color="#b0d3df"/><stop offset=".92" stop-color="#8bbae2"/><stop offset=".94" stop-color="#87b7e2"/><stop offset="1" stop-color="#87b7e2"/></linearGradient><clipPath id="clip-path"><path id="SVGID" fill="none" d="M40.53 17.38h50.31v2.72H40.53z"/></clipPath><style>.cls-2{fill:#231f20}</style></defs><g id="Слой_2" data-name="Слой 2"><g id="Слой_1-2" data-name="Слой 1"><path class="cls-2" d="M41.28 2.38v4.67h-.75V1.69h1.26l1.37 4.47 1.37-4.47h1.26v5.36h-.75V2.38l-1.48 4.67h-.8l-1.48-4.67zm5.6 1.99a2.52 2.52 0 115 0 2.52 2.52 0 11-5 0m4.25 0c0-1.38-.77-2.14-1.74-2.14s-1.74.77-1.74 2.14.76 2.14 1.74 2.14 1.74-.76 1.74-2.14M55 3.81c1.19 0 1.91.49 1.91 1.58s-.8 1.66-1.91 1.66h-2V1.69h3.6v.65h-2.86v1.47zm1.14 1.59c0-.72-.44-1-1.2-1h-1.2v2H55c.74 0 1.17-.35 1.17-1m2.5 1.65h-.75V1.69h.75v4.25l2.88-4.25h.75v5.36h-.75V2.79l-2.88 4.26zM67 2.34h-1.9v.94c-.09 2.32-.46 3.77-1.56 3.77h-.22V6.4h.11c.71 0 .89-1.52.95-3.35V1.69h3.32v5.36H67zm2.87-.65v2h.79C72 3.67 73 4 73 5.36s-1 1.69-2.29 1.69h-1.59V1.69zm2.29 3.67c0-.89-.65-1-1.47-1h-.82V6.4h.82c.82 0 1.47-.17 1.47-1m6 1.65h-.75V4.62h-2.82v2.43h-.75V1.69h.75v2.28h2.82V1.69h.75v5.36zm1.09-2.68a2.52 2.52 0 115 0 2.52 2.52 0 11-5 0m4.25 0c0-1.38-.76-2.14-1.74-2.14S80 3 80 4.37s.77 2.14 1.74 2.14 1.74-.76 1.74-2.14M89 1.69v.65h-2.89v1.63h2.72v.65h-2.72V6.4H89v.65h-3.64V1.69H89zM23.46.33a10.09 10.09 0 017.22 2.87 9.91 9.91 0 012.17 3.15 9.53 9.53 0 01.78 3.87 9.49 9.49 0 01-.78 3.87 9.82 9.82 0 01-5.4 5.24 10 10 0 01-4 .78h-7.56V.33zM26 15.9a5.51 5.51 0 001.92-1.31 6.2 6.2 0 001.23-2 6.36 6.36 0 00.44-2.4 6.46 6.46 0 00-.44-2.42 6.1 6.1 0 00-1.23-1.95A5.87 5.87 0 0026 4.51 6.72 6.72 0 0023.46 4h-3.53v12.4h3.53a6 6 0 002.54-.5M6 0a6 6 0 106 6 6 6 0 00-6-6m0 8.52A2.48 2.48 0 118.52 6 2.48 2.48 0 016 8.52"/><g clip-path="url(#clip-path)"><path fill="url(#Безымянный_градиент_4)" d="M40.53 17.38h50.31v2.72H40.53z"/></g><path class="cls-2" d="M41.28 14.75h.5a.66.66 0 00.64-.36l.1-.19-2-4.26h.81l1.56 3.48 1.44-3.48h.83l-2 4.48a1.49 1.49 0 01-1.37 1h-.55zm7.88-4.16h-2.68v4.7h-.75V9.94h4.18v5.35h-.75v-4.7zm6.07.97c0 1.33-.91 1.62-2.22 1.62h-.92v2.12h-.76V9.94H53c1.31 0 2.22.29 2.22 1.62m-3.14 1h1c.78 0 1.4-.08 1.4-1s-.62-1-1.4-1h-1zm5.64-2.62l2 5.36h-.81l-.42-1.16h-2.44l-.42 1.16h-.77l2-5.36zm.55 3.55l-1-2.79-1 2.79zm4.15-3.55c1 0 1.88.26 1.88 1.32a1.33 1.33 0 01-.59 1.18 1.27 1.27 0 01.81 1.27c0 1.14-.85 1.59-1.92 1.59h-2.11V9.94zm.11 2.29c.62 0 1-.24 1-.87s-.41-.79-1-.79h-1.29v1.66zm.08 2.43c.76 0 1.14-.33 1.14-.94s-.38-.89-1.19-.89h-1.32v1.83zm6.15-4.07h-1.89v.93c-.08 2.32-.45 3.78-1.55 3.78h-.23v-.65h.11c.71 0 .9-1.53 1-3.36V9.94h3.36v5.36h-.76zm5.81-.65v.65h-2.88v1.62h2.71v.66h-2.71v1.77h2.88v.65h-3.63V9.94h3.63zm5.4 5.35h-.75v-2.43h-2.81v2.43h-.76V9.94h.76v2.27h2.81V9.94h.75v5.35zm2.18 0h-.76V9.94h.76v4.25l2.88-4.25h.75v5.35h-.75v-4.25l-2.88 4.25zm8.69-5.35v.65h-2.89v1.62h2.72v.66h-2.72v1.77h2.89v.65H87.2V9.94h3.64z"/></g></g></svg>