<svg xmlns="http://www.w3.org/2000/svg" viewBox="0 0 79.14 20.11"><defs><linearGradient id="b" x1="-50.36" y1="276.18" x2="-49.36" y2="276.18" gradientTransform="matrix(38.61 0 0 -38.61 1985.12 10682.82)" gradientUnits="userSpaceOnUse"><stop offset="0" stop-color="#a5afd9"/><stop offset=".14" stop-color="#a5afd9"/><stop offset=".24" stop-color="#b6b7d8"/><stop offset=".49" stop-color="#dccbd7"/><stop offset=".69" stop-color="#f3d7d6"/><stop offset=".82" stop-color="#fcdbd6"/><stop offset="1" stop-color="#fcdbd6"/></linearGradient><clipPath id="a"><path fill="none" d="M40.53 17.39h38.61v2.72H40.53z"/></clipPath></defs><g data-name="Слой 2"><g data-name="Слой 1"><g clip-path="url(#a)"><path fill="url(#b)" d="M40.53 17.39h38.61v2.72H40.53z"/></g><path d="M23.46.34a10.14 10.14 0 017.22 2.86 9.91 9.91 0 012.17 3.15 9.53 9.53 0 01.78 3.87 9.46 9.46 0 01-.78 3.87 9.82 9.82 0 01-5.4 5.24 10 10 0 01-4 .78h-7.56V.34zM26 15.9a5.38 5.38 0 001.92-1.31 6.2 6.2 0 001.23-2 6.36 6.36 0 00.44-2.4 6.46 6.46 0 00-.44-2.42 6.22 6.22 0 00-1.23-1.95A5.87 5.87 0 0026 4.51 6.72 6.72 0 0023.46 4h-3.53v12.41h3.53A6 6 0 0026 15.9M6 0a6 6 0 106 6 6 6 0 00-6-6m0 8.52A2.48 2.48 0 118.52 6 2.48 2.48 0 016 8.52m35.31-6.24v4.85h-.78V1.57h1.31l1.42 4.63 1.42-4.63h1.31v5.56h-.79V2.28l-1.53 4.85h-.83l-1.53-4.85zm5.8 2.06a2.62 2.62 0 115.21 0 2.62 2.62 0 11-5.21 0m4.42 0c0-1.43-.8-2.21-1.81-2.21s-1.81.78-1.81 2.21.8 2.23 1.81 2.23 1.81-.79 1.81-2.23m2.7 2.79h-.78V1.57h.78V6l3-4.41H58v5.54h-.78V2.71zm1.51-5.87c-.88 0-1.31-.4-1.39-.92h.59c0 .29.33.46.81.46s.76-.18.82-.46h.59c-.06.52-.51.92-1.42.92M41.31 12.67v2.53h-.78V9.64h.78V12h.56l1.87-2.36h.94l-2.14 2.63 2.22 2.93h-.93l-1.94-2.53h-.58zm3.69-.25a2.62 2.62 0 115.21 0 2.62 2.62 0 11-5.21 0m4.41 0c0-1.44-.79-2.22-1.8-2.22s-1.81.78-1.81 2.22.79 2.22 1.81 2.22 1.8-.79 1.8-2.22m2.67-2.06v4.84h-.78V9.64h1.31l1.42 4.63 1.41-4.63h1.31v5.56h-.78v-4.84l-1.53 4.84h-.83l-1.53-4.84zm11.44 2.06a2.32 2.32 0 01-2.47 2.33v.65h-.79v-.65a2.36 2.36 0 110-4.72v-.69h.79V10a2.34 2.34 0 012.47 2.39m-4.94 0a1.65 1.65 0 001.68 1.7v-3.41a1.64 1.64 0 00-1.68 1.72m4.14 0a1.65 1.65 0 00-1.67-1.72v3.42a1.65 1.65 0 001.67-1.7m1.52.02a2.62 2.62 0 115.21 0 2.62 2.62 0 11-5.21 0m4.42 0c0-1.44-.8-2.22-1.81-2.22S65 11 65 12.42s.8 2.22 1.81 2.22 1.81-.79 1.81-2.22m6.01-1.1c0 1.38-.95 1.68-2.31 1.68h-1v2.2h-.78V9.64h1.74c1.36 0 2.31.31 2.31 1.68m-3.27 1h1c.81 0 1.45-.09 1.45-1s-.64-1-1.45-1h-1zm3.42-2v-.68h4.4v.68h-1.81v4.88h-.78v-4.88h-1.81z" fill="#231f20"/></g></g></svg>