<svg xmlns="http://www.w3.org/2000/svg" xmlns:xlink="http://www.w3.org/1999/xlink"><defs><style>.cls-1{fill:none;}.cls-2{fill:#231f20;}.cls-3{clip-path:url(#clip-path);}.cls-4{fill:url(#Безымянный_градиент_8);}</style><clipPath id="clip-path"><rect id="SVGID" class="cls-1" x="40.53" y="17.39" width="33.44" height="2.72"/></clipPath><linearGradient id="&#x411;&#x435;&#x437;&#x44B;&#x43C;&#x44F;&#x43D;&#x43D;&#x44B;&#x439;_&#x433;&#x440;&#x430;&#x434;&#x438;&#x435;&#x43D;&#x442;_8" x1="-50.49" y1="330.76" x2="-49.49" y2="330.76" gradientTransform="matrix(33.44, 0, 0, -33.44, 1728.54, 11077.86)" gradientUnits="userSpaceOnUse"><stop offset="0" stop-color="#fedecb"/><stop offset="0.19" stop-color="#fedecb"/><stop offset="0.29" stop-color="#f7ddcb"/><stop offset="0.43" stop-color="#e3dac9"/><stop offset="0.59" stop-color="#c3d6c7"/><stop offset="0.78" stop-color="#96cfc4"/><stop offset="0.89" stop-color="#79cbc2"/><stop offset="1" stop-color="#79cbc2"/></linearGradient><style>.a{fill:#fff;}</style><style>.a,.b{fill:#fff;}.b{fill-rule:evenodd;}</style><style>.cls-1{fill:none;}.cls-2{fill:#231f20;}.cls-3{clip-path:url(#clip-path);}.cls-4{fill:url(#Безымянный_градиент_4);}</style><clipPath id="clip-path"><rect id="SVGID" class="cls-1" x="40.53" y="17.38" width="50.31" height="2.72"/></clipPath><linearGradient id="&#x411;&#x435;&#x437;&#x44B;&#x43C;&#x44F;&#x43D;&#x43D;&#x44B;&#x439;_&#x433;&#x440;&#x430;&#x434;&#x438;&#x435;&#x43D;&#x442;_4" x1="-50.18" y1="166.94" x2="-49.18" y2="166.94" gradientTransform="matrix(50.31, 0, 0, -50.31, 2564.67, 8417.06)" gradientUnits="userSpaceOnUse"><stop offset="0" stop-color="#cfe9dc"/><stop offset="0.21" stop-color="#cfe9dc"/><stop offset="0.37" stop-color="#c7e3dd"/><stop offset="0.61" stop-color="#b0d3df"/><stop offset="0.92" stop-color="#8bbae2"/><stop offset="0.94" stop-color="#87b7e2"/><stop offset="1" stop-color="#87b7e2"/></linearGradient><style>.cls-1{fill:none;}.cls-2{fill:#231f20;}.cls-3{clip-path:url(#clip-path);}.cls-4{fill:url(#Безымянный_градиент_3);}</style><clipPath id="clip-path"><rect id="SVGID" class="cls-1" x="40.53" y="17.38" width="43.29" height="2.72"/></clipPath><linearGradient id="&#x411;&#x435;&#x437;&#x44B;&#x43C;&#x44F;&#x43D;&#x43D;&#x44B;&#x439;_&#x433;&#x440;&#x430;&#x434;&#x438;&#x435;&#x43D;&#x442;_3" x1="-50.28" y1="221.65" x2="-49.28" y2="221.65" gradientTransform="matrix(43.29, 0, 0, -43.29, 2217.19, 9615.02)" gradientUnits="userSpaceOnUse"><stop offset="0" stop-color="#ffe5aa"/><stop offset="0.41" stop-color="#fbc8ad"/><stop offset="0.88" stop-color="#f6a1b0"/><stop offset="1" stop-color="#f6a1b0"/></linearGradient><style>.cls-1{fill:none;}.cls-2{clip-path:url(#clip-path);}.cls-3{fill:url(#Безымянный_градиент_2);}.cls-4{fill:#231f20;}</style><clipPath id="clip-path"><rect id="SVGID" class="cls-1" x="40.53" y="17.39" width="38.61" height="2.72"/></clipPath><linearGradient id="&#x411;&#x435;&#x437;&#x44B;&#x43C;&#x44F;&#x43D;&#x43D;&#x44B;&#x439;_&#x433;&#x440;&#x430;&#x434;&#x438;&#x435;&#x43D;&#x442;_2" x1="-50.36" y1="276.18" x2="-49.36" y2="276.18" gradientTransform="matrix(38.61, 0, 0, -38.61, 1985.12, 10682.82)" gradientUnits="userSpaceOnUse"><stop offset="0" stop-color="#a5afd9"/><stop offset="0.14" stop-color="#a5afd9"/><stop offset="0.24" stop-color="#b6b7d8"/><stop offset="0.49" stop-color="#dccbd7"/><stop offset="0.69" stop-color="#f3d7d6"/><stop offset="0.82" stop-color="#fcdbd6"/><stop offset="1" stop-color="#fcdbd6"/></linearGradient></defs><symbol id="climat-online" viewBox="0 0 74.06 20.11"><g id="&#x421;&#x43B;&#x43E;&#x439;_2" data-name="&#x421;&#x43B;&#x43E;&#x439; 2"><g id="&#x421;&#x43B;&#x43E;&#x439;_1-2" data-name="&#x421;&#x43B;&#x43E;&#x439; 1"><path class="cls-2" d="M23.46.34A10.14,10.14,0,0,1,30.68,3.2a9.91,9.91,0,0,1,2.17,3.15,9.53,9.53,0,0,1,.78,3.87,9.49,9.49,0,0,1-.78,3.87,9.82,9.82,0,0,1-5.4,5.24,10,10,0,0,1-4,.78H15.89V.34ZM26,15.9a5.51,5.51,0,0,0,1.92-1.31,6.2,6.2,0,0,0,1.23-2,6.36,6.36,0,0,0,.44-2.4,6.46,6.46,0,0,0-.44-2.42,6.1,6.1,0,0,0-1.23-1.95A5.87,5.87,0,0,0,26,4.51,6.72,6.72,0,0,0,23.46,4H19.93V16.4h3.53A6,6,0,0,0,26,15.9"/><path class="cls-2" d="M6,0a6,6,0,1,0,6,6A6,6,0,0,0,6,0M6,8.52A2.48,2.48,0,1,1,8.52,6,2.48,2.48,0,0,1,6,8.52"/><polygon class="cls-2" points="41.44 4.64 41.44 7.17 40.66 7.17 40.66 1.61 41.44 1.61 41.44 3.97 42 3.97 43.87 1.61 44.81 1.61 42.67 4.24 44.89 7.17 43.96 7.17 42.02 4.64 41.44 4.64"/><path class="cls-2" d="M49.08,2.29h-2l0,1c-.09,2.41-.47,3.92-1.61,3.92h-.23V6.5h.11c.74,0,.93-1.58,1-3.48l0-1.41h3.49V7.17h-.79Z"/><polygon class="cls-2" points="52.12 7.17 51.34 7.17 51.34 1.61 52.12 1.61 52.12 6.02 55.11 1.61 55.89 1.61 55.89 7.17 55.11 7.17 55.11 2.76 52.12 7.17"/><polygon class="cls-2" points="58.14 2.33 58.14 7.17 57.36 7.17 57.36 1.61 58.67 1.61 60.09 6.24 61.51 1.61 62.82 1.61 62.82 7.17 62.04 7.17 62.04 2.33 60.5 7.17 59.68 7.17 58.14 2.33"/><path class="cls-2" d="M66.56,1.61l2.09,5.56h-.84L67.37,6H64.82l-.43,1.2h-.8l2.06-5.56Zm.57,3.69-1-2.9-1,2.9Z"/><polygon class="cls-2" points="68.14 2.29 68.14 1.61 72.54 1.61 72.54 2.29 70.73 2.29 70.73 7.17 69.95 7.17 69.95 2.29 68.14 2.29"/><path class="cls-2" d="M40.53,12.61a2.62,2.62,0,1,1,5.21,0,2.62,2.62,0,1,1-5.21,0m4.41,0c0-1.44-.79-2.22-1.81-2.22s-1.8.78-1.8,2.22.79,2.22,1.8,2.22,1.81-.79,1.81-2.22"/><polygon class="cls-2" points="51.35 15.39 50.57 15.39 50.57 12.87 47.65 12.87 47.65 15.39 46.87 15.39 46.87 9.83 47.65 9.83 47.65 12.19 50.57 12.19 50.57 9.83 51.35 9.83 51.35 15.39"/><path class="cls-2" d="M56.16,10.51h-2l0,1c-.09,2.41-.47,3.92-1.61,3.92h-.23v-.68h.11c.74,0,.93-1.58,1-3.48l0-1.4H57v5.56h-.79Z"/><path class="cls-2" d="M60.69,9.83l2.09,5.56h-.84l-.44-1.21H59l-.43,1.21h-.8l2.06-5.56Zm.56,3.69-1-2.9-1,2.9Z"/><path class="cls-2" d="M64.33,15.39h-.78V9.83h.78v4.41l3-4.41h.78v5.56h-.78V11Zm1.51-5.87c-.88,0-1.31-.39-1.39-.92H65c0,.29.33.46.81.46s.76-.18.82-.46h.59c-.06.53-.51.92-1.42.92"/><polygon class="cls-2" points="74.06 15.39 73.28 15.39 73.28 12.87 70.36 12.87 70.36 15.39 69.58 15.39 69.58 9.83 70.36 9.83 70.36 12.19 73.28 12.19 73.28 9.83 74.06 9.83 74.06 15.39"/><g class="cls-3"><rect class="cls-4" x="40.53" y="17.39" width="33.44" height="2.72"/></g></g></g></symbol><symbol id="icon_appstore_white" viewBox="0 0 162 48"><g transform="translate(0 0)"><path class="a" d="M405.862,321.28a5.039,5.039,0,0,1,5.04,5.04v36a5.039,5.039,0,0,1-5.04,5.04h-150a5.041,5.041,0,0,1-5.04-5.04v-36a5.041,5.041,0,0,1,5.04-5.04Zm0-.96h-150a6,6,0,0,0-6,6v36a6,6,0,0,0,6,6h150a6,6,0,0,0,6-6v-36a6,6,0,0,0-6-6Z" transform="translate(-249.862 -320.32)"/><path class="a" d="M294.636,348.4a6.627,6.627,0,0,1,3.157-5.561,6.786,6.786,0,0,0-5.346-2.891c-2.249-.237-4.431,1.346-5.576,1.346-1.169,0-2.933-1.323-4.835-1.284a7.118,7.118,0,0,0-5.991,3.654c-2.591,4.486-.658,11.077,1.823,14.7,1.242,1.775,2.693,3.758,4.592,3.688,1.858-.077,2.552-1.185,4.794-1.185,2.222,0,2.873,1.185,4.81,1.14,1.994-.032,3.25-1.784,4.448-3.575a14.686,14.686,0,0,0,2.034-4.142A6.405,6.405,0,0,1,294.636,348.4Z" transform="translate(-256.1 -325.22)"/><path class="a" d="M294.908,335.214a6.526,6.526,0,0,0,1.493-4.676,6.641,6.641,0,0,0-4.3,2.223,6.206,6.206,0,0,0-1.532,4.5A5.49,5.49,0,0,0,294.908,335.214Z" transform="translate(-260.031 -322.875)"/><path class="a" d="M332.812,364.016h-2.6l-1.423-4.47h-4.943l-1.355,4.47h-2.528l4.9-15.216h3.026Zm-4.448-6.345-1.286-3.973q-.2-.61-.767-2.866h-.046q-.225.971-.723,2.866l-1.263,3.973Z" transform="translate(-267.388 -327.44)"/><path class="a" d="M350.367,359.734a6.239,6.239,0,0,1-1.513,4.424,4.424,4.424,0,0,1-3.364,1.445,3.363,3.363,0,0,1-3.116-1.557h-.046v5.779h-2.437V358q0-1.761-.091-3.612h2.144l.136,1.739h.046a4.337,4.337,0,0,1,6.941-.43A6.047,6.047,0,0,1,350.367,359.734Zm-2.484.089a4.516,4.516,0,0,0-.722-2.641,2.5,2.5,0,0,0-2.122-1.085,2.536,2.536,0,0,0-1.636.6,2.774,2.774,0,0,0-.959,1.57,3.215,3.215,0,0,0-.113.743v1.829a2.929,2.929,0,0,0,.734,2.021,2.433,2.433,0,0,0,1.907.824,2.5,2.5,0,0,0,2.144-1.06A4.671,4.671,0,0,0,347.883,359.824Z" transform="translate(-272.347 -328.78)"/><path class="a" d="M367.193,359.734a6.233,6.233,0,0,1-1.514,4.424,4.418,4.418,0,0,1-3.362,1.445,3.361,3.361,0,0,1-3.115-1.557h-.046v5.779h-2.437V358q0-1.761-.091-3.612h2.144l.136,1.739h.046a4.339,4.339,0,0,1,6.943-.43A6.062,6.062,0,0,1,367.193,359.734Zm-2.484.089a4.51,4.51,0,0,0-.724-2.641,2.49,2.49,0,0,0-2.12-1.085,2.54,2.54,0,0,0-1.638.6,2.772,2.772,0,0,0-.958,1.57,3.257,3.257,0,0,0-.113.743v1.829a2.938,2.938,0,0,0,.732,2.021,2.437,2.437,0,0,0,1.909.824,2.5,2.5,0,0,0,2.144-1.06A4.671,4.671,0,0,0,364.709,359.824Z" transform="translate(-276.553 -328.78)"/><path class="a" d="M386.38,359.674a4.055,4.055,0,0,1-1.352,3.16,5.988,5.988,0,0,1-4.144,1.332,7.256,7.256,0,0,1-3.943-.948l.565-2.032a6.683,6.683,0,0,0,3.524.972,3.332,3.332,0,0,0,2.146-.622,2.032,2.032,0,0,0,.766-1.663,2.117,2.117,0,0,0-.632-1.559,5.866,5.866,0,0,0-2.1-1.177q-4-1.491-3.995-4.363a3.862,3.862,0,0,1,1.4-3.075,5.525,5.525,0,0,1,3.725-1.2,7.385,7.385,0,0,1,3.453.722l-.61,1.988a5.989,5.989,0,0,0-2.911-.7,2.946,2.946,0,0,0-2.008.632,1.8,1.8,0,0,0-.61,1.378,1.858,1.858,0,0,0,.7,1.49,7.911,7.911,0,0,0,2.214,1.174,7.5,7.5,0,0,1,2.889,1.85A3.864,3.864,0,0,1,386.38,359.674Z" transform="translate(-281.632 -327.366)"/><path class="a" d="M398.046,355.377h-2.687V360.7q0,2.033,1.422,2.033a4.357,4.357,0,0,0,1.083-.113l.068,1.851a5.534,5.534,0,0,1-1.9.27,2.925,2.925,0,0,1-2.258-.88,4.326,4.326,0,0,1-.813-2.958v-5.53h-1.6v-1.829h1.6v-2.009l2.395-.722v2.731h2.687Z" transform="translate(-285.238 -327.944)"/><path class="a" d="M412.855,359.78a6.015,6.015,0,0,1-1.445,4.154,5.159,5.159,0,0,1-4.02,1.671,4.907,4.907,0,0,1-3.847-1.6,5.835,5.835,0,0,1-1.433-4.041,5.958,5.958,0,0,1,1.478-4.175,5.116,5.116,0,0,1,3.983-1.626,5.01,5.01,0,0,1,3.883,1.6A5.768,5.768,0,0,1,412.855,359.78Zm-2.529.079a4.934,4.934,0,0,0-.654-2.6,2.408,2.408,0,0,0-2.189-1.312,2.444,2.444,0,0,0-2.235,1.313,5.028,5.028,0,0,0-.654,2.649,4.929,4.929,0,0,0,.654,2.6,2.491,2.491,0,0,0,4.4-.023A4.952,4.952,0,0,0,410.326,359.858Z" transform="translate(-287.924 -328.78)"/><path class="a" d="M425.045,356.527a4.269,4.269,0,0,0-.769-.068,2.3,2.3,0,0,0-1.987.972,3.654,3.654,0,0,0-.61,2.167v5.757h-2.437l.023-7.517q0-1.9-.091-3.455H421.3l.089,2.1h.067a3.752,3.752,0,0,1,1.219-1.738,2.947,2.947,0,0,1,1.762-.588,3.925,3.925,0,0,1,.61.045Z" transform="translate(-292.19 -328.78)"/><path class="a" d="M438.288,359.344a5.708,5.708,0,0,1-.089,1.106h-7.313a3.181,3.181,0,0,0,1.061,2.485,3.624,3.624,0,0,0,2.392.767,8.083,8.083,0,0,0,2.959-.519l.383,1.692a9.148,9.148,0,0,1-3.679.678,5.329,5.329,0,0,1-4.009-1.5,5.545,5.545,0,0,1-1.455-4.029,6.285,6.285,0,0,1,1.356-4.131,4.672,4.672,0,0,1,3.836-1.759,4.089,4.089,0,0,1,3.591,1.759A5.936,5.936,0,0,1,438.288,359.344Zm-2.325-.632a3.307,3.307,0,0,0-.473-1.874,2.129,2.129,0,0,0-1.943-1.016,2.313,2.313,0,0,0-1.94.994,3.639,3.639,0,0,0-.721,1.9h5.077Z" transform="translate(-294.531 -328.773)"/><path class="a" d="M328.041,335.114a3.753,3.753,0,0,1-1.21,3.039,4.81,4.81,0,0,1-3.182.942,14.627,14.627,0,0,1-1.753-.089v-7.353a12.944,12.944,0,0,1,2.063-.155,4.45,4.45,0,0,1,2.962.854A3.45,3.45,0,0,1,328.041,335.114Zm-1.263.033a2.436,2.436,0,0,0-2.718-2.706,5.089,5.089,0,0,0-.965.077v5.591a6.421,6.421,0,0,0,.81.033,2.835,2.835,0,0,0,2.123-.765A3.066,3.066,0,0,0,326.778,335.147Z" transform="translate(-267.871 -323.114)"/><path class="a" d="M337.262,336.966a2.957,2.957,0,0,1-.71,2.041,2.533,2.533,0,0,1-1.975.821,2.408,2.408,0,0,1-1.891-.787,2.867,2.867,0,0,1-.7-1.985,2.929,2.929,0,0,1,.726-2.051,2.517,2.517,0,0,1,1.957-.8,2.464,2.464,0,0,1,1.908.787A2.845,2.845,0,0,1,337.262,336.966Zm-1.244.039a2.438,2.438,0,0,0-.321-1.279,1.184,1.184,0,0,0-1.075-.645,1.2,1.2,0,0,0-1.1.645,2.468,2.468,0,0,0-.321,1.3,2.439,2.439,0,0,0,.321,1.279,1.21,1.21,0,0,0,1.087.645,1.2,1.2,0,0,0,1.075-.656A2.422,2.422,0,0,0,336.019,337.005Z" transform="translate(-270.392 -323.791)"/><path class="a" d="M348.4,334.352l-1.687,5.39h-1.1l-.7-2.341a17.477,17.477,0,0,1-.433-1.742h-.022a12.767,12.767,0,0,1-.433,1.742l-.742,2.341h-1.11l-1.585-5.39h1.231l.609,2.563c.148.606.268,1.183.366,1.729h.022c.089-.45.237-1.024.445-1.718l.765-2.573H345l.733,2.518q.266.92.432,1.774h.033a17.17,17.17,0,0,1,.366-1.774l.654-2.518H348.4Z" transform="translate(-272.543 -323.828)"/><path class="a" d="M357.705,339.7h-1.2v-3.087q0-1.428-1.086-1.427a1.081,1.081,0,0,0-.866.392,1.393,1.393,0,0,0-.333.924v3.2h-1.2v-3.848q0-.71-.044-1.543h1.053l.056.843h.033a1.734,1.734,0,0,1,.621-.651,2.026,2.026,0,0,1,1.086-.3,1.72,1.72,0,0,1,1.254.488,2.373,2.373,0,0,1,.621,1.786Z" transform="translate(-275.642 -323.79)"/><path class="a" d="M363.287,338.918h-1.2v-7.863h1.2Z" transform="translate(-277.919 -323.004)"/><path class="a" d="M371.332,336.966a2.957,2.957,0,0,1-.71,2.041,2.533,2.533,0,0,1-1.975.821,2.4,2.4,0,0,1-1.891-.787,2.871,2.871,0,0,1-.7-1.985,2.929,2.929,0,0,1,.726-2.051,2.519,2.519,0,0,1,1.957-.8,2.468,2.468,0,0,1,1.909.787A2.845,2.845,0,0,1,371.332,336.966Zm-1.244.039a2.438,2.438,0,0,0-.321-1.279,1.183,1.183,0,0,0-1.074-.645,1.2,1.2,0,0,0-1.1.645,2.474,2.474,0,0,0-.321,1.3,2.439,2.439,0,0,0,.321,1.279,1.21,1.21,0,0,0,1.088.645,1.2,1.2,0,0,0,1.074-.656A2.416,2.416,0,0,0,370.088,337.005Z" transform="translate(-278.91 -323.791)"/><path class="a" d="M379.349,339.706h-1.076l-.089-.621h-.034a1.845,1.845,0,0,1-1.574.743,1.624,1.624,0,0,1-1.23-.488,1.532,1.532,0,0,1-.422-1.1,1.674,1.674,0,0,1,.827-1.508,4.287,4.287,0,0,1,2.325-.51v-.1q0-1.065-1.12-1.065a2.508,2.508,0,0,0-1.4.4l-.244-.787a3.457,3.457,0,0,1,1.849-.465q2.113,0,2.115,2.23v1.984A8.38,8.38,0,0,0,379.349,339.706Zm-1.244-1.852v-.831q-1.982-.035-1.982,1.086a.813.813,0,0,0,.229.632.837.837,0,0,0,.586.211,1.21,1.21,0,0,0,.733-.25,1.023,1.023,0,0,0,.434-.848Z" transform="translate(-281.128 -323.791)"/><path class="a" d="M388.187,338.918h-1.063l-.056-.866h-.034a1.791,1.791,0,0,1-1.731.988,2.027,2.027,0,0,1-1.618-.765,2.979,2.979,0,0,1-.643-1.984,3.123,3.123,0,0,1,.7-2.119,2.149,2.149,0,0,1,1.664-.755,1.615,1.615,0,0,1,1.518.732h.023v-3.094h1.2v6.411Q388.145,338.252,388.187,338.918Zm-1.241-2.273v-.9a1.758,1.758,0,0,0-.034-.377,1.364,1.364,0,0,0-.433-.726,1.178,1.178,0,0,0-.8-.294,1.23,1.23,0,0,0-1.054.532,2.284,2.284,0,0,0-.384,1.364,2.127,2.127,0,0,0,.368,1.3,1.233,1.233,0,0,0,1.047.532,1.155,1.155,0,0,0,.947-.443A1.479,1.479,0,0,0,386.946,336.645Z" transform="translate(-283.157 -323.004)"/><path class="a" d="M401.807,336.966a2.957,2.957,0,0,1-.71,2.041,2.532,2.532,0,0,1-1.975.821,2.412,2.412,0,0,1-1.891-.787,2.871,2.871,0,0,1-.7-1.985,2.929,2.929,0,0,1,.726-2.051,2.518,2.518,0,0,1,1.959-.8,2.46,2.46,0,0,1,1.906.787A2.845,2.845,0,0,1,401.807,336.966Zm-1.242.039a2.438,2.438,0,0,0-.321-1.279,1.186,1.186,0,0,0-1.076-.645,1.205,1.205,0,0,0-1.1.645,2.468,2.468,0,0,0-.321,1.3,2.439,2.439,0,0,0,.321,1.279,1.21,1.21,0,0,0,1.087.645,1.2,1.2,0,0,0,1.076-.656A2.43,2.43,0,0,0,400.565,337.005Z" transform="translate(-286.529 -323.791)"/><path class="a" d="M410.583,339.7h-1.2v-3.087q0-1.428-1.087-1.427a1.079,1.079,0,0,0-.865.392,1.389,1.389,0,0,0-.332.924v3.2h-1.2v-3.848q0-.71-.042-1.543h1.052l.056.843H407a1.749,1.749,0,0,1,.62-.651,2.033,2.033,0,0,1,1.087-.3,1.722,1.722,0,0,1,1.253.488,2.37,2.37,0,0,1,.621,1.786Z" transform="translate(-288.861 -323.79)"/><path class="a" d="M421.815,334.8h-1.32v2.618c0,.665.235,1,.7,1a2.085,2.085,0,0,0,.534-.056l.031.909a2.69,2.69,0,0,1-.931.134,1.43,1.43,0,0,1-1.108-.433,2.111,2.111,0,0,1-.4-1.453V334.8h-.787v-.9h.787v-.988l1.175-.354V333.9h1.319v.9Z" transform="translate(-292.03 -323.381)"/><path class="a" d="M429.807,338.918h-1.2v-3.065q0-1.449-1.085-1.45a1.143,1.143,0,0,0-1.143.841,1.484,1.484,0,0,0-.056.43v3.242h-1.2v-7.861h1.2V334.3h.023a1.812,1.812,0,0,1,1.619-.886,1.672,1.672,0,0,1,1.233.488,2.458,2.458,0,0,1,.609,1.808Z" transform="translate(-293.678 -323.004)"/><path class="a" d="M438.495,336.753a2.909,2.909,0,0,1-.044.543h-3.594a1.569,1.569,0,0,0,.52,1.219,1.781,1.781,0,0,0,1.176.377,3.956,3.956,0,0,0,1.454-.255l.188.833a4.507,4.507,0,0,1-1.809.333,2.612,2.612,0,0,1-1.967-.737,2.716,2.716,0,0,1-.715-1.979,3.084,3.084,0,0,1,.665-2.029,2.29,2.29,0,0,1,1.884-.865,2,2,0,0,1,1.762.865A2.879,2.879,0,0,1,438.495,336.753Zm-1.144-.31a1.611,1.611,0,0,0-.232-.92,1.047,1.047,0,0,0-.953-.5,1.137,1.137,0,0,0-.954.488,1.816,1.816,0,0,0-.355.932Z" transform="translate(-295.822 -323.788)"/></g></symbol><symbol id="icon_arrow-right" viewBox="0 0 6 11">
<path fill-rule="evenodd" clip-rule="evenodd" d="M0.188289 10.8082C-0.0627629 10.5525 -0.0627629 10.138 0.188288 9.88225L4.44801 5.5L0.188288 1.11775C-0.0627633 0.862048 -0.0627633 0.447475 0.188288 0.191775C0.439339 -0.0639258 0.846374 -0.0639258 1.09743 0.191775L5.81171 5.03701C6.06276 5.29271 6.06276 5.70729 5.81171 5.96299L1.09743 10.8082C0.846375 11.0639 0.43934 11.0639 0.188289 10.8082Z" fill="white"/>
</symbol><symbol id="icon_googlepay_white" viewBox="0 0 162 48"><path class="a" d="M156,.96A5.04,5.04,0,0,1,161.04,6V42A5.04,5.04,0,0,1,156,47.04H6A5.04,5.04,0,0,1,.96,42V6A5.04,5.04,0,0,1,6,.96ZM156,0H6A6,6,0,0,0,0,6V42a6,6,0,0,0,6,6H156a6,6,0,0,0,6-6V6a6,6,0,0,0-6-6Z"/><path class="a" d="M98.117,32.9a5.1,5.1,0,1,0,5.124,5.1,5.028,5.028,0,0,0-5.124-5.1Zm0,8.2A3.1,3.1,0,1,1,101,38a2.952,2.952,0,0,1-2.88,3.1ZM86.945,32.9A5.1,5.1,0,1,0,92.057,38a5.028,5.028,0,0,0-5.124-5.1Zm0,8.2A3.1,3.1,0,1,1,89.813,38a2.952,2.952,0,0,1-2.88,3.1ZM73.637,34.47v2.16h5.184a4.524,4.524,0,0,1-1.2,2.724,5.3,5.3,0,0,1-4,1.584,5.76,5.76,0,1,1,0-11.52,5.52,5.52,0,0,1,3.924,1.548l1.524-1.524A7.548,7.548,0,0,0,73.637,27.2a7.932,7.932,0,1,0,0,15.852,7,7,0,0,0,7.4-7.284,7.041,7.041,0,0,0-.12-1.356Zm54.372,1.68A4.718,4.718,0,0,0,118.841,38a4.992,4.992,0,0,0,5.064,5.1,5.076,5.076,0,0,0,4.248-2.256l-1.74-1.2a2.917,2.917,0,0,1-2.508,1.416,2.592,2.592,0,0,1-2.472-1.548l6.828-2.82Zm-6.96,1.7a2.8,2.8,0,0,1,2.664-2.976,1.98,1.98,0,0,1,1.9,1.08ZM115.505,42.8h2.244v-15h-2.244Zm-3.672-8.76h-.084a3.6,3.6,0,0,0-2.688-1.2,5.112,5.112,0,0,0,0,10.212,3.479,3.479,0,0,0,2.688-1.2h.072v.732c0,1.956-1.044,3-2.724,3a2.82,2.82,0,0,1-2.568-1.812l-1.956.816A4.86,4.86,0,0,0,109.1,47.6c2.628,0,4.8-1.548,4.8-5.316V33.2h-2.064Zm-2.568,7.056a3.108,3.108,0,0,1,0-6.192,2.88,2.88,0,0,1,2.724,3.1,2.856,2.856,0,0,1-2.736,3.1Zm29.256-13.3h-5.364v15H135.4V37.11h3.132a4.668,4.668,0,1,0,0-9.312Zm0,7.2h-3.132V29.886h3.18a2.574,2.574,0,1,1,0,5.148Zm13.836-2.16a4.2,4.2,0,0,0-4,2.292l1.992.828a2.123,2.123,0,0,1,2.04-1.1,2.16,2.16,0,0,1,2.4,1.932v.156a4.957,4.957,0,0,0-2.34-.576c-2.148,0-4.32,1.2-4.32,3.372a3.468,3.468,0,0,0,3.72,3.3,3.157,3.157,0,0,0,2.88-1.44h.072v1.2h2.16V37.026c0-2.628-1.992-4.152-4.548-4.152Zm-.276,8.22c-.732,0-1.752-.372-1.752-1.272,0-1.2,1.272-1.6,2.4-1.6a3.984,3.984,0,0,1,2.04.5,2.712,2.712,0,0,1-2.628,2.4Zm12.756-7.86-2.568,6.5H162.2l-2.664-6.5h-2.4l4,9.1-2.28,5.052h2.34L167.333,33.2Zm-20.172,9.6h2.244v-15h-2.244Z" transform="translate(-16.349 -6.798)"/><path class="a" d="M73.342,15.13a3.253,3.253,0,0,1-.9,2.4A3.492,3.492,0,0,1,69.8,18.6a3.78,3.78,0,0,1-2.652-6.444,3.6,3.6,0,0,1,2.652-1.08,3.72,3.72,0,0,1,1.476.3,2.965,2.965,0,0,1,1.128.8l-.636.636a2.4,2.4,0,0,0-1.968-.852,2.784,2.784,0,0,0-2.8,2.88,2.832,2.832,0,0,0,4.8,2.076,2.268,2.268,0,0,0,.6-1.464H69.8V14.59h3.492A3.054,3.054,0,0,1,73.342,15.13Zm5.5-3H75.6v2.28H78.55v.864H75.6v2.28h3.24v.888h-4.2v-7.2h4.2Zm3.936,6.312H81.85V12.13H79.834v-.888h5v.888H82.774Zm5.592,0v-7.2h.924v7.2Zm5.028,0H92.47V12.13H90.454v-.888H95.4v.888h-2Zm11.376-.936a3.744,3.744,0,0,1-5.28,0,3.887,3.887,0,0,1,0-5.34,3.72,3.72,0,0,1,5.28,0,3.875,3.875,0,0,1,0,5.34Zm-4.6-.6a2.772,2.772,0,0,0,3.912,0,3.073,3.073,0,0,0,0-4.128,2.772,2.772,0,0,0-3.912,0,3.073,3.073,0,0,0,0,4.128Zm6.96,1.536v-7.2h1.128l3.5,5.6v-5.6h.924v7.2h-.96l-3.66-5.868v5.868Z" transform="translate(-16.513 -2.767)"/><path class="b" d="M102.09,11.146a3.6,3.6,0,0,0-2.554,1.063,3.767,3.767,0,0,0,0,5.173,3.624,3.624,0,0,0,5.108,0,3.756,3.756,0,0,0,0-5.172,3.6,3.6,0,0,0-2.554-1.063Zm-1.476.055a3.841,3.841,0,0,1,4.2.84v0a4,4,0,0,1,0,5.505l0,0a3.864,3.864,0,0,1-5.449,0l0,0a4.007,4.007,0,0,1,0-5.5l0,0A3.836,3.836,0,0,1,100.614,11.2Zm-30.855-.048A3.481,3.481,0,0,0,67.2,12.2h0a3.66,3.66,0,0,0,2.568,6.239h0a3.372,3.372,0,0,0,2.549-1.031,3.132,3.132,0,0,0,.867-2.311l.12-.006h-.12a2.934,2.934,0,0,0-.03-.42h-3.27v.624H72.49l0,.124a2.388,2.388,0,0,1-.632,1.541l0,.005a2.952,2.952,0,0,1-5-2.161,2.9,2.9,0,0,1,2.913-3,2.52,2.52,0,0,1,1.976.8l.465-.465a2.843,2.843,0,0,0-1.007-.689h0a3.6,3.6,0,0,0-1.428-.29Zm3.663,3.933a3.373,3.373,0,0,1-.933,2.486,3.613,3.613,0,0,1-2.729,1.1,3.9,3.9,0,0,1-2.735-6.648,3.72,3.72,0,0,1,2.739-1.116,3.839,3.839,0,0,1,1.521.309,3.084,3.084,0,0,1,1.172.836l.073.084-.808.808-.084-.1a2.28,2.28,0,0,0-1.87-.809h-.007A2.664,2.664,0,0,0,67.086,14.8V14.8a2.712,2.712,0,0,0,4.594,1.99,2.148,2.148,0,0,0,.558-1.26h-2.6v-1.1h3.712l.018.1A3.17,3.17,0,0,1,73.422,15.087Zm1.056-4.005h4.44V12.21h-3.24v2.04H78.63v1.1H75.678v2.04h3.24v1.128h-4.44Zm.24.24v6.96h3.96v-.648h-3.24v-2.52H78.39V14.49H75.438V11.97h3.24v-.648Zm4.956-.24h5.244V12.21H82.854v6.312H81.69V12.21H79.674Zm.24.24v.648H81.93v6.312h.684V11.97h2.064v-.648Zm8.292-.24H89.37v7.44H88.206Zm.24.24v6.96h.684v-6.96Zm1.848-.24h5.184V12.21h-2v6.312H92.31V12.21H90.294Zm.24.24v.648H92.55v6.312h.684V11.97h2v-.648Zm16.44-.24h1.315l3.317,5.306V11.082h1.164v7.44h-1.147l-3.473-5.569v5.569h-1.176Zm.24.24v6.96h.7V12.114l3.847,6.167h.773v-6.96h-.684v5.9l-3.691-5.9Zm-7.165,1.331a2.892,2.892,0,0,1,4.082,0l0,0a3.194,3.194,0,0,1,0,4.289l0,0a2.892,2.892,0,0,1-4.082,0l.085-.085-.088.081a3.191,3.191,0,0,1,0-4.289Zm.172,4.13a2.652,2.652,0,0,0,3.738,0,2.952,2.952,0,0,0,0-3.962,2.652,2.652,0,0,0-3.738,0,2.952,2.952,0,0,0,0,3.962Z" transform="translate(-16.473 -2.727)"/><path class="a" d="M16.585,42.162l14.7-15.247L16.6,11.694a1.7,1.7,0,0,0-.635,1.5V40.672A1.73,1.73,0,0,0,16.585,42.162Z" transform="translate(-3.991 -2.924)"/><path class="a" d="M32.282,26.439,36.661,21.9,18.828,11.755a1.92,1.92,0,0,0-.989-.277l14.44,14.96Z" transform="translate(-4.46 -2.869)"/><path class="a" d="M32.267,32.551,17.781,47.577a1.912,1.912,0,0,0,1.034-.284L36.683,37.123Z" transform="translate(-4.445 -8.138)"/><path class="a" d="M48.07,29.149l-5.934-3.381-4.5,4.666,4.532,4.7,5.9-3.372A1.375,1.375,0,0,0,48.07,29.149Z" transform="translate(-9.409 -6.442)"/></symbol><symbol id="mobile-control" viewBox="0 0 90.84 20.11"><g id="&#x421;&#x43B;&#x43E;&#x439;_2" data-name="&#x421;&#x43B;&#x43E;&#x439; 2"><g id="&#x421;&#x43B;&#x43E;&#x439;_1-2" data-name="&#x421;&#x43B;&#x43E;&#x439; 1"><polygon class="cls-2" points="41.28 2.38 41.28 7.05 40.53 7.05 40.53 1.69 41.79 1.69 43.16 6.16 44.53 1.69 45.79 1.69 45.79 7.05 45.04 7.05 45.04 2.38 43.56 7.05 42.76 7.05 41.28 2.38"/><path class="cls-2" d="M46.88,4.37a2.52,2.52,0,1,1,5,0,2.52,2.52,0,1,1-5,0m4.25,0c0-1.38-.77-2.14-1.74-2.14S47.65,3,47.65,4.37s.76,2.14,1.74,2.14,1.74-.76,1.74-2.14"/><path class="cls-2" d="M55,3.81c1.19,0,1.91.49,1.91,1.58S56.11,7.05,55,7.05H53V1.69h3.6v.65H53.74V3.81ZM56.14,5.4c0-.72-.44-1-1.2-1h-1.2v2H55c.74,0,1.17-.35,1.17-1"/><polygon class="cls-2" points="58.67 7.05 57.92 7.05 57.92 1.69 58.67 1.69 58.67 5.94 61.55 1.69 62.3 1.69 62.3 7.05 61.55 7.05 61.55 2.79 58.67 7.05"/><path class="cls-2" d="M67,2.34h-1.9l0,.94c-.09,2.32-.46,3.77-1.56,3.77h-.22V6.4h.11c.71,0,.89-1.52.95-3.35l0-1.36H67.7V7.05H67Z"/><path class="cls-2" d="M69.87,1.69v2h.79C72,3.67,73,4,73,5.36s-1,1.69-2.29,1.69H69.12V1.69Zm2.29,3.67c0-.89-.65-1-1.47-1h-.82V6.4h.82c.82,0,1.47-.17,1.47-1"/><polygon class="cls-2" points="78.16 7.05 77.41 7.05 77.41 4.62 74.59 4.62 74.59 7.05 73.84 7.05 73.84 1.69 74.59 1.69 74.59 3.97 77.41 3.97 77.41 1.69 78.16 1.69 78.16 7.05"/><path class="cls-2" d="M79.25,4.37a2.52,2.52,0,1,1,5,0,2.52,2.52,0,1,1-5,0m4.25,0c0-1.38-.76-2.14-1.74-2.14S80,3,80,4.37s.77,2.14,1.74,2.14,1.74-.76,1.74-2.14"/><polygon class="cls-2" points="89 1.69 89 2.34 86.11 2.34 86.11 3.97 88.83 3.97 88.83 4.62 86.11 4.62 86.11 6.4 89 6.4 89 7.05 85.36 7.05 85.36 1.69 89 1.69"/><path class="cls-2" d="M23.46.33A10.09,10.09,0,0,1,30.68,3.2a9.91,9.91,0,0,1,2.17,3.15,9.53,9.53,0,0,1,.78,3.87,9.49,9.49,0,0,1-.78,3.87,9.82,9.82,0,0,1-5.4,5.24,10,10,0,0,1-4,.78H15.89V.33ZM26,15.9a5.51,5.51,0,0,0,1.92-1.31,6.2,6.2,0,0,0,1.23-2,6.36,6.36,0,0,0,.44-2.4,6.46,6.46,0,0,0-.44-2.42,6.1,6.1,0,0,0-1.23-1.95A5.87,5.87,0,0,0,26,4.51,6.72,6.72,0,0,0,23.46,4H19.93V16.4h3.53A6,6,0,0,0,26,15.9"/><path class="cls-2" d="M6,0a6,6,0,1,0,6,6A6,6,0,0,0,6,0M6,8.52A2.48,2.48,0,1,1,8.52,6,2.48,2.48,0,0,1,6,8.52"/><g class="cls-3"><rect class="cls-4" x="40.53" y="17.38" width="50.31" height="2.72"/></g><path class="cls-2" d="M41.28,14.75h.5a.66.66,0,0,0,.64-.36l.1-.19-2-4.26h.81l1.56,3.48,1.44-3.48h.83l-2,4.48a1.49,1.49,0,0,1-1.37,1h-.55Z"/><polygon class="cls-2" points="49.16 10.59 46.48 10.59 46.48 15.29 45.73 15.29 45.73 9.94 49.91 9.94 49.91 15.29 49.16 15.29 49.16 10.59"/><path class="cls-2" d="M55.23,11.56c0,1.33-.91,1.62-2.22,1.62h-.92V15.3h-.76V9.94H53c1.31,0,2.22.29,2.22,1.62m-3.14,1h1c.78,0,1.4-.08,1.4-1s-.62-1-1.4-1h-1Z"/><path class="cls-2" d="M57.72,9.94l2,5.36h-.81l-.42-1.16H56.05l-.42,1.16h-.77l2-5.36Zm.55,3.55-1-2.79-1,2.79Z"/><path class="cls-2" d="M62.42,9.94c1,0,1.88.26,1.88,1.32a1.33,1.33,0,0,1-.59,1.18,1.27,1.27,0,0,1,.81,1.27c0,1.14-.85,1.59-1.92,1.59H60.49V9.94Zm.11,2.29c.62,0,1-.24,1-.87s-.41-.79-1-.79H61.24v1.66Zm.08,2.43c.76,0,1.14-.33,1.14-.94s-.38-.89-1.19-.89H61.24v1.83Z"/><path class="cls-2" d="M68.76,10.59H66.87l0,.93c-.08,2.32-.45,3.78-1.55,3.78h-.23v-.65h.11c.71,0,.9-1.53,1-3.36l0-1.35h3.36V15.3h-.76Z"/><polygon class="cls-2" points="74.57 9.94 74.57 10.59 71.69 10.59 71.69 12.21 74.4 12.21 74.4 12.87 71.69 12.87 71.69 14.64 74.57 14.64 74.57 15.29 70.94 15.29 70.94 9.94 74.57 9.94"/><polygon class="cls-2" points="79.97 15.29 79.22 15.29 79.22 12.86 76.41 12.86 76.41 15.29 75.65 15.29 75.65 9.94 76.41 9.94 76.41 12.21 79.22 12.21 79.22 9.94 79.97 9.94 79.97 15.29"/><polygon class="cls-2" points="82.15 15.29 81.39 15.29 81.39 9.94 82.15 9.94 82.15 14.19 85.03 9.94 85.78 9.94 85.78 15.29 85.03 15.29 85.03 11.04 82.15 15.29"/><polygon class="cls-2" points="90.84 9.94 90.84 10.59 87.95 10.59 87.95 12.21 90.67 12.21 90.67 12.87 87.95 12.87 87.95 14.64 90.84 14.64 90.84 15.29 87.2 15.29 87.2 9.94 90.84 9.94"/></g></g></symbol><symbol id="my-comfort-plus" viewBox="0 0 83.82 20.11"><g id="&#x421;&#x43B;&#x43E;&#x439;_2" data-name="&#x421;&#x43B;&#x43E;&#x439; 2"><g id="&#x421;&#x43B;&#x43E;&#x439;_1-2" data-name="&#x421;&#x43B;&#x43E;&#x439; 1"><path class="cls-2" d="M23.46.33A10.09,10.09,0,0,1,30.68,3.2a9.91,9.91,0,0,1,2.17,3.15,9.53,9.53,0,0,1,.78,3.87,9.49,9.49,0,0,1-.78,3.87,9.82,9.82,0,0,1-5.4,5.24,10,10,0,0,1-4,.78H15.89V.33ZM26,15.9a5.51,5.51,0,0,0,1.92-1.31,6.2,6.2,0,0,0,1.23-2,6.36,6.36,0,0,0,.44-2.4,6.46,6.46,0,0,0-.44-2.42,6.1,6.1,0,0,0-1.23-1.95A5.87,5.87,0,0,0,26,4.51,6.72,6.72,0,0,0,23.46,4H19.93V16.4h3.53A6,6,0,0,0,26,15.9"/><path class="cls-2" d="M6,0a6,6,0,1,0,6,6A6,6,0,0,0,6,0M6,8.52A2.48,2.48,0,1,1,8.52,6,2.48,2.48,0,0,1,6,8.52"/><polygon class="cls-2" points="41.31 2.28 41.31 7.12 40.53 7.12 40.53 1.57 41.84 1.57 43.26 6.2 44.68 1.57 45.99 1.57 45.99 7.12 45.2 7.12 45.2 2.28 43.67 7.12 42.84 7.12 41.31 2.28"/><path class="cls-2" d="M47.11,4.34a2.62,2.62,0,1,1,5.21,0,2.62,2.62,0,1,1-5.21,0m4.42,0c0-1.43-.8-2.21-1.81-2.21s-1.81.78-1.81,2.21.8,2.23,1.81,2.23,1.81-.79,1.81-2.23"/><path class="cls-2" d="M54.23,7.12h-.78V1.57h.78V6l3-4.41H58V7.12h-.78V2.71Zm1.51-5.86c-.88,0-1.31-.4-1.39-.92h.59c0,.29.33.45.81.45s.76-.17.82-.45h.59c-.06.52-.51.92-1.42.92"/><polygon class="cls-2" points="41.31 12.64 41.31 15.17 40.53 15.17 40.53 9.61 41.31 9.61 41.31 11.97 41.87 11.97 43.74 9.61 44.68 9.61 42.54 12.24 44.76 15.17 43.83 15.17 41.89 12.64 41.31 12.64"/><path class="cls-2" d="M45,12.39a2.62,2.62,0,1,1,5.21,0,2.62,2.62,0,1,1-5.21,0m4.41,0c0-1.44-.79-2.22-1.8-2.22s-1.81.78-1.81,2.22.79,2.22,1.81,2.22,1.8-.79,1.8-2.22"/><polygon class="cls-2" points="52.08 10.33 52.08 15.17 51.3 15.17 51.3 9.61 52.61 9.61 54.03 14.24 55.44 9.61 56.75 9.61 56.75 15.17 55.97 15.17 55.97 10.33 54.44 15.17 53.61 15.17 52.08 10.33"/><path class="cls-2" d="M63.52,12.39a2.32,2.32,0,0,1-2.47,2.33v.65h-.79v-.65a2.36,2.36,0,1,1,0-4.72V9.31h.79V10a2.34,2.34,0,0,1,2.47,2.39m-4.94,0a1.65,1.65,0,0,0,1.68,1.7V10.65a1.64,1.64,0,0,0-1.68,1.72m4.14,0a1.65,1.65,0,0,0-1.67-1.72v3.42a1.64,1.64,0,0,0,1.67-1.7"/><path class="cls-2" d="M64.24,12.39a2.62,2.62,0,1,1,5.21,0,2.62,2.62,0,1,1-5.21,0m4.42,0c0-1.44-.8-2.22-1.81-2.22S65,11,65,12.39s.8,2.22,1.81,2.22,1.81-.79,1.81-2.22"/><path class="cls-2" d="M74.63,11.29c0,1.38-.95,1.68-2.31,1.68h-1v2.2h-.78V9.61h1.74c1.36,0,2.31.31,2.31,1.68m-3.27,1h1c.81,0,1.45-.09,1.45-1s-.64-1-1.45-1h-1Z"/><polygon class="cls-2" points="74.74 10.29 74.74 9.61 79.14 9.61 79.14 10.29 77.33 10.29 77.33 15.17 76.55 15.17 76.55 10.29 74.74 10.29"/><polygon class="cls-2" points="81.39 12.93 79.66 12.93 79.66 12.27 81.39 12.27 81.39 10.58 82.09 10.58 82.09 12.27 83.83 12.27 83.83 12.93 82.09 12.93 82.09 14.66 81.39 14.66 81.39 12.93"/><g class="cls-3"><rect class="cls-4" x="40.53" y="17.38" width="43.29" height="2.72"/></g></g></g></symbol><symbol id="my-comfort" viewBox="0 0 79.14 20.11"><g id="&#x421;&#x43B;&#x43E;&#x439;_2" data-name="&#x421;&#x43B;&#x43E;&#x439; 2"><g id="&#x421;&#x43B;&#x43E;&#x439;_1-2" data-name="&#x421;&#x43B;&#x43E;&#x439; 1"><g class="cls-2"><rect class="cls-3" x="40.53" y="17.39" width="38.61" height="2.72"/></g><path class="cls-4" d="M23.46.34A10.14,10.14,0,0,1,30.68,3.2a9.91,9.91,0,0,1,2.17,3.15,9.53,9.53,0,0,1,.78,3.87,9.46,9.46,0,0,1-.78,3.87,9.82,9.82,0,0,1-5.4,5.24,10,10,0,0,1-4,.78H15.89V.34ZM26,15.9a5.38,5.38,0,0,0,1.92-1.31,6.2,6.2,0,0,0,1.23-2,6.36,6.36,0,0,0,.44-2.4,6.46,6.46,0,0,0-.44-2.42,6.22,6.22,0,0,0-1.23-1.95A5.87,5.87,0,0,0,26,4.51,6.72,6.72,0,0,0,23.46,4H19.93V16.41h3.53A6,6,0,0,0,26,15.9"/><path class="cls-4" d="M6,0a6,6,0,1,0,6,6A6,6,0,0,0,6,0M6,8.52A2.48,2.48,0,1,1,8.52,6,2.48,2.48,0,0,1,6,8.52"/><polygon class="cls-4" points="41.31 2.28 41.31 7.13 40.53 7.13 40.53 1.57 41.84 1.57 43.26 6.2 44.68 1.57 45.99 1.57 45.99 7.13 45.2 7.13 45.2 2.28 43.67 7.13 42.84 7.13 41.31 2.28"/><path class="cls-4" d="M47.11,4.34a2.62,2.62,0,1,1,5.21,0,2.62,2.62,0,1,1-5.21,0m4.42,0c0-1.43-.8-2.21-1.81-2.21s-1.81.78-1.81,2.21.8,2.23,1.81,2.23,1.81-.79,1.81-2.23"/><path class="cls-4" d="M54.23,7.13h-.78V1.57h.78V6l3-4.41H58V7.13h-.78V2.71Zm1.51-5.87c-.88,0-1.31-.4-1.39-.92h.59c0,.29.33.46.81.46s.76-.18.82-.46h.59c-.06.52-.51.92-1.42.92"/><polygon class="cls-4" points="41.31 12.67 41.31 15.2 40.53 15.2 40.53 9.64 41.31 9.64 41.31 12 41.87 12 43.74 9.64 44.68 9.64 42.54 12.27 44.76 15.2 43.83 15.2 41.89 12.67 41.31 12.67"/><path class="cls-4" d="M45,12.42a2.62,2.62,0,1,1,5.21,0,2.62,2.62,0,1,1-5.21,0m4.41,0c0-1.44-.79-2.22-1.8-2.22s-1.81.78-1.81,2.22.79,2.22,1.81,2.22,1.8-.79,1.8-2.22"/><polygon class="cls-4" points="52.08 10.36 52.08 15.2 51.3 15.2 51.3 9.64 52.61 9.64 54.03 14.27 55.44 9.64 56.75 9.64 56.75 15.2 55.97 15.2 55.97 10.36 54.44 15.2 53.61 15.2 52.08 10.36"/><path class="cls-4" d="M63.52,12.42a2.32,2.32,0,0,1-2.47,2.33v.65h-.79v-.65a2.36,2.36,0,1,1,0-4.72V9.34h.79V10a2.34,2.34,0,0,1,2.47,2.39m-4.94,0a1.65,1.65,0,0,0,1.68,1.7V10.68a1.64,1.64,0,0,0-1.68,1.72m4.14,0a1.65,1.65,0,0,0-1.67-1.72V14.1a1.65,1.65,0,0,0,1.67-1.7"/><path class="cls-4" d="M64.24,12.42a2.62,2.62,0,1,1,5.21,0,2.62,2.62,0,1,1-5.21,0m4.42,0c0-1.44-.8-2.22-1.81-2.22S65,11,65,12.42s.8,2.22,1.81,2.22,1.81-.79,1.81-2.22"/><path class="cls-4" d="M74.63,11.32c0,1.38-.95,1.68-2.31,1.68h-1v2.2h-.78V9.64h1.74c1.36,0,2.31.31,2.31,1.68m-3.27,1h1c.81,0,1.45-.09,1.45-1s-.64-1-1.45-1h-1Z"/><polygon class="cls-4" points="74.74 10.32 74.74 9.64 79.14 9.64 79.14 10.32 77.33 10.32 77.33 15.2 76.55 15.2 76.55 10.32 74.74 10.32"/></g></g></symbol></svg>